# xmcd
#
# Track frame offsets:
#	150
#	20257
#	36414
#	57921
#	76143
#	96129
#	111589
#	133493
#	150981
#	173155
#
# Disc length: 2561 seconds
#
# Revision: 1
# Processed by: cddbd v1.5.1PL0 Copyright (c) Steve Scherf et al.
# Submitted via: EasyCDDAExtractor 7.1.0.1
#
DISCID=7e09ff0a
DTITLE=sibel can - özledinmi
DYEAR=2005
DGENRE=Acapella
TTITLE0=yanlýzlar treni
TTITLE1=aþýk olma
TTITLE2=melekler
TTITLE3=nehir gözlüm
TTITLE4=gümüþ kurþun
TTITLE5=limoni
TTITLE6=gel kýyma
TTITLE7=ev seçelim
TTITLE8=lale devri
TTITLE9=aþk yolcu
EXTD=
EXTT0=
EXTT1=
EXTT2=
EXTT3=
EXTT4=
EXTT5=
EXTT6=
EXTT7=
EXTT8=
EXTT9=
PLAYORDER=
